# xmcd
#
# Track frame offsets:
#	150
#	30821
#	65837
#	102432
#	132240
#	159180
#	192797
#	218881
#	255396
#	287089
#	317001
#
# Disc length: 4565 seconds
# Revision: 0
# Processed by: cddbd v1.5.2PL0 Copyright (c) Steve Scherf et al.
# Submitted via: dBpowerAMP V12.0
#
DISCID=9411d30b
DTITLE=Various Artist - House and Club Classics
DYEAR=1987
DGENRE=House
TTITLE0=Ten City - Devotion (Club Mix)
TTITLE1=Adeva - Respect (12" Extended Version)
TTITLE2=Urbanized Feat. Silvano - Helpless (I Don't Know What To Do Without You) (The Kenlou Mix)
TTITLE3=Colonel Abrams - Music Is The Answer (Vocal)
TTITLE4=Club Idol - Bus Stop (Hip House Mix)
TTITLE5=Home Boys Only - Turn It Out (Hip House)
TTITLE6=Jinny - Keep Warm (Extended Mix)
TTITLE7=Logic - The Warning (Inner Mix)
TTITLE8=D-Shake - Yaaah (Freestyle Club Mix)
TTITLE9=Fingers Inc. - Mystery Of Love
TTITLE10=Mix Masters Feat. Andrea - How Low Can U Touch Me (Fast Eddie's Boomin' Mix)
EXTD=
EXTT0=
EXTT1=
EXTT2=
EXTT3=
EXTT4=
EXTT5=
EXTT6=
EXTT7=
EXTT8=
EXTT9=
EXTT10=
PLAYORDER=
